<svg xmlns="http://www.w3.org/2000/svg" viewBox="0 0 64 64" role="img" aria-label="Epic Little Treasures">
  <rect width="64" height="64" rx="14" fill="#f7f0e1"/>
  <g transform="translate(3.6,4) scale(0.46)" fill="none" stroke="#3f362c" stroke-width="3.4" stroke-linecap="round" stroke-linejoin="round">
    <g>
      <path d="M60 50 C 74 30, 96 26, 106 34 C 112 40, 104 56, 90 64 C 78 70, 64 64, 60 58 Z" fill="#9cae87"/>
      <path d="M60 62 C 74 66, 92 74, 94 88 C 95 98, 82 101, 72 94 C 64 89, 60 78, 60 70 Z" fill="#b5a8cb"/>
    </g>
    <g transform="translate(120,0) scale(-1,1)">
      <path d="M60 50 C 74 30, 96 26, 106 34 C 112 40, 104 56, 90 64 C 78 70, 64 64, 60 58 Z" fill="#9cae87"/>
      <path d="M60 62 C 74 66, 92 74, 94 88 C 95 98, 82 101, 72 94 C 64 89, 60 78, 60 70 Z" fill="#b5a8cb"/>
    </g>
    <path d="M60 36 C 54 36, 52 42, 52 49 C 52 60, 55 80, 60 96 C 65 80, 68 60, 68 49 C 68 42, 66 36, 60 36 Z" fill="#5f7050"/>
    <circle cx="60" cy="34" r="6" fill="#3f362c" stroke="none"/>
    <path d="M58 30 C 52 22, 44 18, 38 17" stroke-width="2.8"/>
    <path d="M62 30 C 68 22, 76 18, 82 17" stroke-width="2.8"/>
  </g>
</svg>
